<svg xmlns="http://www.w3.org/2000/svg" width="32" height="32" viewBox="0 0 32 32">
  <!-- 亚索 · 疾风刃 点击态 -->
  <g transform="translate(16 16)">
    
    <circle r="9" fill="#0E9394" fill-opacity="0.16" />
    <g stroke="#0E9394" stroke-width="1.3" stroke-linecap="round">
      <line x1="0" y1="-14" x2="0" y2="-10.5" /><line x1="0" y1="10.5" x2="0" y2="14" />
      <line x1="-14" y1="0" x2="-10.5" y2="0" /><line x1="10.5" y1="0" x2="14" y2="0" />
      <line x1="-10" y1="-10" x2="-7.4" y2="-7.4" /><line x1="7.4" y1="7.4" x2="10" y2="10" />
      <line x1="10" y1="-10" x2="7.4" y2="-7.4" /><line x1="-7.4" y1="7.4" x2="-10" y2="10" />
    </g>
    <path d="M -11 4 A 12 12 0 0 1 9 -8 L 4 -4 A 8 8 0 0 0 -8 6 Z" fill="#0E9394" />
    <path d="M 9 -8 L 11 -10 L 7 -6.6 Z" fill="#7FB8B4" />
    <path d="M -2 -12 Q 4 -14 8 -10" fill="none" stroke="#7FB8B4" stroke-width="1.2" stroke-linecap="round" />
  </g>
</svg>
