<svg xmlns="http://www.w3.org/2000/svg" width="32" height="32" viewBox="0 0 32 32">
  <!-- 卡莎 · 虚空蝶 点击态 -->
  <g transform="translate(16 16)">
    
    <circle r="9" fill="#A78BFA" fill-opacity="0.16" />
    <g stroke="#A78BFA" stroke-width="1.3" stroke-linecap="round">
      <line x1="0" y1="-14" x2="0" y2="-10.5" /><line x1="0" y1="10.5" x2="0" y2="14" />
      <line x1="-14" y1="0" x2="-10.5" y2="0" /><line x1="10.5" y1="0" x2="14" y2="0" />
      <line x1="-10" y1="-10" x2="-7.4" y2="-7.4" /><line x1="7.4" y1="7.4" x2="10" y2="10" />
      <line x1="10" y1="-10" x2="7.4" y2="-7.4" /><line x1="-7.4" y1="7.4" x2="-10" y2="10" />
    </g>
    <ellipse cx="-5.6" cy="-4" rx="6" ry="4.2" transform="rotate(-32 -5.6 -4)" fill="#A78BFA" fill-opacity=".85" stroke="#C4B0FD" stroke-width="0.8" />
    <ellipse cx="5.6" cy="-4" rx="6" ry="4.2" transform="rotate(32 5.6 -4)" fill="#A78BFA" fill-opacity=".85" stroke="#C4B0FD" stroke-width="0.8" />
    <ellipse cx="-4.6" cy="4.4" rx="4.4" ry="3" transform="rotate(28 -4.6 4.4)" fill="#A78BFA" fill-opacity=".6" />
    <ellipse cx="4.6" cy="4.4" rx="4.4" ry="3" transform="rotate(-28 4.6 4.4)" fill="#A78BFA" fill-opacity=".6" />
    <line x1="0" y1="-8" x2="0" y2="9" stroke="#C4B0FD" stroke-width="1.8" stroke-linecap="round" />
    <path d="M 0 -8 L -2.4 -11 M 0 -8 L 2.4 -11" stroke="#C4B0FD" stroke-width="1.2" stroke-linecap="round" />
  </g>
</svg>
