<svg xmlns="http://www.w3.org/2000/svg" width="32" height="32" viewBox="0 0 32 32">
  <!-- 拉克丝 · 星光法杖 点击态 -->
  <g transform="translate(16 16)">
    
    <circle r="9" fill="#D99A1B" fill-opacity="0.16" />
    <g stroke="#D99A1B" stroke-width="1.3" stroke-linecap="round">
      <line x1="0" y1="-14" x2="0" y2="-10.5" /><line x1="0" y1="10.5" x2="0" y2="14" />
      <line x1="-14" y1="0" x2="-10.5" y2="0" /><line x1="10.5" y1="0" x2="14" y2="0" />
      <line x1="-10" y1="-10" x2="-7.4" y2="-7.4" /><line x1="7.4" y1="7.4" x2="10" y2="10" />
      <line x1="10" y1="-10" x2="7.4" y2="-7.4" /><line x1="-7.4" y1="7.4" x2="-10" y2="10" />
    </g>
    <line x1="-10" y1="10" x2="3" y2="-3" stroke="#D99A1B" stroke-width="2.4" stroke-linecap="round" />
    <path d="M 3 -3 L 4.4 -8 L 6 -3.2 L 10.6 -2 L 6.2 -0.6 L 4.8 3.6 L 3 -0.6 L -1.6 -1.8 Z" fill="#F5D76E" stroke="#D99A1B" stroke-width="0.7" />
    <circle cx="4.6" cy="-2.2" r="1" fill="#fff" fill-opacity=".95" />
  </g>
</svg>
